<svg width="88" height="55" viewBox="0 0 88 55" fill="none" xmlns="http://www.w3.org/2000/svg">
<path d="M7.52 43H3.12V14.28H7.52V43ZM14.465 40.32C12.7583 38.2667 11.905 35.6267 11.905 32.4C11.905 29.1733 12.7583 26.5333 14.465 24.48C16.1983 22.4267 18.4783 21.4 21.305 21.4C22.825 21.4 24.1983 21.7733 25.425 22.52C26.6517 23.2667 27.6383 24.3333 28.385 25.72V21.8H32.145V50.72H28.105V39.4C26.5317 42.0667 24.265 43.4 21.305 43.4C18.4783 43.4 16.1983 42.3733 14.465 40.32ZM16.105 32.4C16.105 34.72 16.6517 36.5333 17.745 37.84C18.8383 39.1467 20.2917 39.8 22.105 39.8C23.865 39.8 25.305 39.1467 26.425 37.84C27.545 36.5067 28.105 34.6933 28.105 32.4C28.105 30.08 27.545 28.2667 26.425 26.96C25.305 25.6267 23.865 24.96 22.105 24.96C20.3183 24.96 18.865 25.6133 17.745 26.92C16.6517 28.2267 16.105 30.0533 16.105 32.4ZM41.8009 32.16V43H37.7609V21.8H41.5209V26.28C42.2676 24.8133 43.3743 23.6533 44.8409 22.8C46.3343 21.9467 47.9476 21.52 49.6809 21.52V25.72C47.3076 25.5867 45.4009 26.0667 43.9609 27.16C42.5209 28.2267 41.8009 29.8933 41.8009 32.16ZM65.7181 43V39.72C64.3581 42.1733 62.0915 43.4 58.9181 43.4C56.7048 43.4 54.9315 42.8267 53.5981 41.68C52.2915 40.5067 51.6381 38.9467 51.6381 37C51.6381 32.7867 54.8515 30.68 61.2781 30.68C62.5315 30.68 63.8515 30.76 65.2381 30.92V29.36C65.2381 27.84 64.8515 26.6667 64.0781 25.84C63.3048 25.0133 62.2115 24.6 60.7981 24.6C59.3315 24.6 58.1581 25.0133 57.2781 25.84C56.4248 26.6667 55.9715 27.8267 55.9181 29.32H52.2381C52.3448 26.9467 53.1715 25.04 54.7181 23.6C56.2915 22.1333 58.3181 21.4 60.7981 21.4C63.4115 21.4 65.4381 22.1067 66.8781 23.52C68.3448 24.9067 69.0781 26.8667 69.0781 29.4V43H65.7181ZM55.4781 36.88C55.4781 37.9733 55.8515 38.8533 56.5981 39.52C57.3715 40.1867 58.4115 40.52 59.7181 40.52C61.3981 40.52 62.7315 40.04 63.7181 39.08C64.7315 38.0933 65.2381 36.7867 65.2381 35.16V33.44C63.9848 33.28 62.7448 33.2 61.5181 33.2C57.4915 33.2 55.4781 34.4267 55.4781 36.88Z" fill="white"/>
<path fill-rule="evenodd" clip-rule="evenodd" d="M73.75 0H69V9H73.75C71.1267 9 69 11.0147 69 13.5V18H78.5V13.5C78.5 15.9853 80.6267 18 83.25 18H88V9H83.25C85.8733 9 88 6.98528 88 4.5V0H78.5V4.5C78.5 2.01472 76.3733 0 73.75 0ZM78.5 9H73.75C76.3733 9 78.5 11.0147 78.5 13.5V9ZM78.5 9V4.5C78.5 6.98528 80.6267 9 83.25 9H78.5Z" fill="white"/>
</svg>
